<?xml version="1.0" encoding="UTF-8"?>
<svg id="Layer_1" data-name="Layer 1" xmlns="http://www.w3.org/2000/svg" viewBox="0 0 531.06 172.34">
  <defs>
    <style>
      .cls-1 {
        fill: #fcfdff;
      }
    </style>
  </defs>
  <g>
    <g>
      <path class="cls-1" d="m147.32,36.1s2.61-1.45-.1-.93l-55.3,11.06,17.75,5.88c2.81.93,5.85.87,8.62-.17l29.03-15.85h0Z"/>
      <path class="cls-1" d="m102.08,55.6l-20.48-6.78c-.21-.07-.43-.13-.64-.19-.29-.07-.59-.08-.88-.02l-49.44,9.89c-.62.14-2.13.57-.9,1.33,2.05,1.34,5.69,2.96,12.05,3.72l34.96,4.75c3.33.45,5.99,3.02,6.56,6.33l8.76,58.91h0s.03.17.03.17c.1.61.58,2.75,2.39,3.52.27.12.58-.07.62-.36l11.23-74.04c.6-3.14-1.22-6.23-4.25-7.24Z"/>
    </g>
    <g>
      <path class="cls-1" d="m206.99,51.58h-11.85v30.02h-5.63v-30.02h-11.79v-5.05h29.27v5.05Z"/>
      <path class="cls-1" d="m247.47,81.6h-5.63v-16.04h-17.64v16.04h-5.63v-35.07h5.63v13.97h17.64v-13.97h5.63v35.07Z"/>
      <path class="cls-1" d="m295.35,64.07c0,10.31-8.29,18.12-18.44,18.12s-18.38-7.86-18.38-18.12,8.18-18.12,18.38-18.12,18.44,7.86,18.44,18.12Zm-30.97-.05c0,7.54,5.31,13.02,12.59,13.02s12.59-5.47,12.59-13.02-5.42-12.91-12.59-12.91-12.59,5.47-12.59,12.91Z"/>
      <path class="cls-1" d="m340.73,45.95v35.65h-5.63v-22l-10.04,13.18h-1.91l-10.09-13.23v22.05h-5.63v-35.65h1.97l14.72,19.6,14.72-19.6h1.91Z"/>
      <path class="cls-1" d="m379.57,57.27c0,6.32-4.78,10.79-11.9,10.79h-7.17v13.55h-5.63v-35.07h12.8c7.12,0,11.9,4.36,11.9,10.73Zm-19.07-5.74v11.53h7.07c4.04,0,6.22-2.39,6.22-5.74,0-3.4-2.18-5.79-6.22-5.79h-7.07Z"/>
      <path class="cls-1" d="m413.05,52.22l-3.93,3.03c-1.81-2.71-4.36-4.25-7.38-4.25-2.82,0-5.31,1.38-5.31,4.25,0,2.66,2.02,3.61,4.89,4.99l3.93,1.81c5.31,2.44,8.39,5.15,8.39,9.99,0,6.22-5.05,10.15-11.74,10.15-5.84,0-10.57-2.98-13.23-7.6l3.98-3.03c2.02,2.92,4.83,5.58,9.19,5.58,3.61,0,6.06-1.86,6.06-4.89,0-2.76-2.07-3.83-5.15-5.26l-3.88-1.81c-4.52-2.07-8.18-4.78-8.18-9.72,0-5.79,4.99-9.51,11.05-9.51,5.15,0,9.19,2.66,11.32,6.27Z"/>
      <path class="cls-1" d="m461.3,64.07c0,10.31-8.29,18.12-18.44,18.12s-18.38-7.86-18.38-18.12,8.18-18.12,18.38-18.12,18.44,7.86,18.44,18.12Zm-30.97-.05c0,7.54,5.31,13.02,12.59,13.02s12.59-5.47,12.59-13.02-5.42-12.91-12.59-12.91-12.59,5.47-12.59,12.91Z"/>
      <path class="cls-1" d="m501.79,46.53v35.65h-1.91l-21.36-24.33v23.75h-5.63v-35.65h1.97l21.3,24.23v-23.64h5.63Z"/>
    </g>
  </g>
  <g>
    <path class="cls-1" d="m190.97,110.1h3.13l8.06,21.29h-4.32l-1.49-4.2h-8.21l-1.52,4.2h-4.14l8.48-21.29Zm-1.67,13.93h5.93l-2.92-8.18h-.03l-2.98,8.18Z"/>
    <path class="cls-1" d="m207.7,131.39v-21.29h13.29v3.22h-9.52v5.5h9.52v3.22h-9.52v6.11h9.52v3.22h-13.29Z"/>
    <path class="cls-1" d="m234.28,110.1c3.38,0,7.57,1.73,7.57,6.27,0,3.44-2.37,5.26-4.87,5.96l6.6,9.06h-4.68l-6.08-8.7h-1.34v8.7h-3.77v-21.29h6.57Zm-.7,9.37c2.46,0,4.29-.88,4.29-3.01,0-1.89-1.49-3.13-3.68-3.13h-2.71v6.14h2.1Z"/>
    <path class="cls-1" d="m257.41,131.75c-6.26,0-11.04-4.93-11.04-11.01s4.77-11.01,11.04-11.01,11.07,4.93,11.07,11.01-4.77,11.01-11.07,11.01Zm0-18.7c-4.08,0-7.06,3.38-7.06,7.69s2.98,7.69,7.06,7.69,7.09-3.38,7.09-7.69-2.98-7.69-7.09-7.69Z"/>
    <path class="cls-1" d="m290.74,112.99c-1.76,0-3.16.88-3.16,2.49s2.1,2.34,3.8,2.92c3.13,1.06,6.66,2.46,6.66,6.75,0,4.68-4.26,6.6-7.79,6.6-3.22,0-5.66-1.12-7.97-3.41l2.55-2.46c1.86,1.79,3.25,2.62,5.44,2.62,1.89,0,3.77-.91,3.77-3.13,0-2.04-2.16-2.8-4.38-3.59-2.86-1.03-5.87-2.43-5.87-6.11,0-4.04,3.22-5.93,6.72-5.93,2.65,0,4.81.82,6.87,2.37l-2.22,2.71c-1.09-.97-2.8-1.82-4.44-1.82Z"/>
    <path class="cls-1" d="m303.61,131.39v-21.29h13.29v3.22h-9.52v5.5h9.52v3.22h-9.52v6.11h9.52v3.22h-13.29Z"/>
    <path class="cls-1" d="m330.91,110.1h3.13l8.06,21.29h-4.32l-1.49-4.2h-8.21l-1.52,4.2h-4.79l9.14-21.29Zm-1.67,13.93h5.93l-2.92-8.18h-.03l-2.98,8.18Z"/>
    <path class="cls-1" d="m352.7,113.33v18.06h-3.77v-18.06h-5.17v-3.22h14.11v3.22h-5.17Z"/>
    <path class="cls-1" d="m364.13,131.39v-21.29h3.77v21.29h-3.77Z"/>
    <path class="cls-1" d="m389.54,131.39l-10.52-14.38v14.38h-3.77v-21.29h3.31l10.58,14.42v-14.42h3.77v21.29h-3.38Z"/>
    <path class="cls-1" d="m409.59,122.57v-3.22h8.81v8.18c-2.16,2.83-5.25,4.23-8.84,4.23-6.48,0-11.37-4.44-11.37-11.01s5.08-11.01,11.37-11.01c3.47,0,6.22,1.46,8.44,4.01l-2.65,2.25c-1.49-1.7-3.36-2.95-5.8-2.95-4.26,0-7.39,3.32-7.39,7.69,0,4.65,3.01,7.69,7.39,7.69,1.95,0,3.64-.73,5.07-2.07v-3.8h-5.04Z"/>
  </g>
</svg>